<svg version="1.1" xmlns="http://www.w3.org/2000/svg" viewBox="0 0 1024 816">
<path fill="#4F46E5" opacity="1.000000" stroke="none" 
	d="
M217.435608,596.481750 
	C234.702560,559.096313 251.820221,522.058167 268.919800,485.011658 
	C269.855133,482.985260 271.183777,481.503723 273.131805,480.283051 
	C340.182404,438.266022 407.196289,396.190430 474.216675,354.125214 
	C491.006927,343.586884 507.856049,333.140747 524.552979,322.456635 
	C528.398804,319.995819 532.268860,318.896057 536.774109,319.090302 
	C562.423462,320.196136 588.117737,320.258972 613.696899,318.510742 
	C636.553406,316.948608 656.966370,308.877411 670.866455,289.265503 
	C680.742126,275.331757 682.339783,260.033813 676.317200,244.147415 
	C674.691711,239.859680 675.406433,237.868118 679.351318,235.455414 
	C709.901550,216.770859 740.331543,197.887695 770.666992,178.856064 
	C774.856506,176.227692 776.563782,176.855453 778.863281,181.140152 
	C790.394897,202.627563 797.335632,225.414124 797.964111,249.790253 
	C798.508545,270.906006 793.712341,291.193329 784.824097,310.271057 
	C758.794250,366.141785 714.272705,399.545471 655.557434,415.211639 
	C638.599609,419.736267 621.252441,421.481140 603.668091,421.426086 
	C558.013367,421.283173 512.357422,421.479584 466.703094,421.277893 
	C460.743713,421.251556 457.368652,423.045532 454.815247,428.625916 
	C426.615814,490.253784 398.192566,551.779297 369.809570,613.323120 
	C359.697021,635.250488 349.484528,657.131897 339.438354,679.089539 
	C338.052399,682.118713 336.157379,683.174927 332.891968,683.170105 
	C283.071320,683.096497 233.250504,683.125977 183.429733,683.110291 
	C181.806290,683.109802 180.067551,683.407349 177.945435,681.380615 
	C190.967545,653.390137 204.125000,625.108704 217.435608,596.481750 
z"/>
<path fill="#4F46E5" opacity="1.000000" stroke="none" 
	d="
M358.579712,273.620697 
	C381.020538,225.411743 403.357544,177.568710 425.478882,129.626144 
	C427.472931,125.304482 429.962067,123.849739 434.584503,123.855400 
	C521.902161,123.962402 609.220093,123.880447 696.537781,123.966774 
	C716.524170,123.986534 733.915161,131.227203 749.015869,144.164902 
	C749.871826,144.898239 750.960205,145.501587 751.268127,147.536743 
	C745.832031,150.972443 740.168518,154.636398 734.423950,158.168610 
	C700.367004,179.109344 666.278564,199.998795 632.245544,220.978241 
	C629.421265,222.719299 626.570435,223.401901 623.289856,223.394882 
	C591.129028,223.326111 558.967346,223.450378 526.807617,223.251678 
	C521.792358,223.220688 519.479797,224.791336 517.999146,229.693527 
	C512.418396,248.170639 506.312347,266.488586 500.530151,284.906067 
	C499.823395,287.157288 498.669250,288.590546 496.702911,289.805298 
	C430.801880,330.518402 364.929779,371.278351 299.045166,412.018066 
	C297.669067,412.868958 296.195587,413.562317 293.717407,413.578522 
	C315.284149,367.038910 336.850891,320.499329 358.579712,273.620697 
z"/>
</svg>
